<svg xmlns="http://www.w3.org/2000/svg" width="39.546" height="39.546" viewBox="0 0 39.546 39.546"><defs><style>.a{fill:#b4ab7b;fill-rule:evenodd;}</style></defs><path class="a" d="M25.52,16.05a4,4,0,0,0-2.693,4.021l.042.684-.691-.084A11.224,11.224,0,0,1,15.6,17.432l-.912-.908-.235.67a4.035,4.035,0,0,0,.856,4.133c.552.587.428.67-.525.321a1.64,1.64,0,0,0-.649-.154,5.017,5.017,0,0,0,.5,1.871,4.457,4.457,0,0,0,1.892,1.787l.677.321-.8.014c-.773,0-.8.014-.718.307a4.178,4.178,0,0,0,2.582,2.29l.856.293-.745.447a7.768,7.768,0,0,1-3.7,1.033,4.1,4.1,0,0,0-1.133.111A10.5,10.5,0,0,0,16.211,31.2a11.653,11.653,0,0,0,9.06-1.033,12.143,12.143,0,0,0,4.6-5.418,14.411,14.411,0,0,0,.939-4.189c0-.643.042-.726.815-1.494a9.158,9.158,0,0,0,.967-1.075c.138-.266.124-.266-.58-.029-1.174.42-1.34.364-.759-.264a4.066,4.066,0,0,0,.939-1.495c0-.041-.207.028-.442.154a7.634,7.634,0,0,1-1.215.475l-.745.238-.677-.461a5.613,5.613,0,0,0-1.174-.614A4.725,4.725,0,0,0,25.52,16.05ZM3,4H42.546V43.546H3Z" transform="translate(-3 -4)"/></svg>