<?xml version="1.0" encoding="utf-8"?>
<!-- Generator: Adobe Illustrator 25.1.0, SVG Export Plug-In . SVG Version: 6.00 Build 0)  -->
<svg version="1.1"
	 id="svg2" xmlns:cc="http://creativecommons.org/ns#" xmlns:dc="http://purl.org/dc/elements/1.1/" xmlns:inkscape="http://www.inkscape.org/namespaces/inkscape" xmlns:rdf="http://www.w3.org/1999/02/22-rdf-syntax-ns#" xmlns:sodipodi="http://sodipodi.sourceforge.net/DTD/sodipodi-0.dtd" xmlns:svg="http://www.w3.org/2000/svg"
	 xmlns="http://www.w3.org/2000/svg" xmlns:xlink="http://www.w3.org/1999/xlink" x="0px" y="0px" viewBox="0 0 32 32"
	 style="enable-background:new 0 0 32 32;" xml:space="preserve">
<style type="text/css">
	.st0{fill:#FFFFFF;}
</style>
<g id="document_x5F_text_x5F_add">
	<path class="st0" d="M24,14.1V5.6L18.4,0H0v32h24v-0.1c4.5-0.5,8-4.3,8-8.9S28.5,14.6,24,14.1z M18,2.4L21.6,6H18V2.4z M2,30V2h14
		v6h6v6.1c-1.8,0.2-3.4,0.9-4.7,1.9H4v2h11.5c-0.4,0.6-0.7,1.3-1,2H4v2h10.1c0,0.3-0.1,0.7-0.1,1c0,2.8,1.3,5.4,3.3,7H2z M23,29.9
		c-3.8,0-6.9-3.1-6.9-6.9s3.1-6.9,6.9-6.9s6.9,3.1,6.9,6.9S26.8,29.9,23,29.9z M20,12H4v2h16V12z"/>
	<g>
		<polygon class="st0" points="28,22 24,22 24,18 22,18 22,22 18,22 18,24 22,24 22,28 24,28 24,24 28,24 		"/>
	</g>
</g>
</svg>
