<svg xmlns="http://www.w3.org/2000/svg" width="35" height="35" viewBox="0 0 35 35"><defs><style>.a{fill:#d9c787;}.b{fill:#fff;}</style></defs><circle class="a" cx="17.5" cy="17.5" r="17.5"/><path class="b" d="M18.692,10.065h-.017a.378.378,0,0,1-.381-.412V7.6a.4.4,0,0,0-.4-.4H12.033a2.627,2.627,0,0,0-2.157.717l-.037.052h0l-.116.159h0c-.156.214-.291.123-.357.053L9.143,7.91l-.11-.132a2.15,2.15,0,0,0-1.619-.572H1.166a.4.4,0,0,0-.4.4V9.628c0,.355-.193.426-.311.438H.371c-.1.006-.32.062-.32.473v9.653a.429.429,0,0,0,.429.428h5.7a3.689,3.689,0,0,1,2.85.949l.136.168h0a.484.484,0,0,0,.747,0h0l.08-.093h0l.1-.119s.027-.031.063-.067a3.525,3.525,0,0,1,2.546-.838h5.877a.428.428,0,0,0,.429-.428V10.445C19.012,10.1,18.76,10.067,18.692,10.065ZM17.41,18.677a.349.349,0,0,1-.356.344H12.219a3,3,0,0,0-2.345.777l-.079.106-.037.051h0c-.164.223-.405,0-.407,0l-.111-.139a2.851,2.851,0,0,0-2.244-.8H2.009a.35.35,0,0,1-.356-.344V8.391a.35.35,0,0,1,.356-.344H5.88c2.879,0,3.152,1.635,3.17,2.11v7.153c0,.52.248.618.388.632h.208c.142-.014.369-.1.369-.5V10.065h0A1.893,1.893,0,0,1,12,8.047h5.057a.35.35,0,0,1,.356.344Z" transform="translate(8.226 3.56)"/></svg>