<svg xmlns="http://www.w3.org/2000/svg" width="1234.576" height="361.7" viewBox="0 0 1234.576 361.7"><defs><style>.a{fill:#55acee;}</style></defs><path class="a" d="M119.886,262.861c27.837,0,43.063-23.071,43.063-43.064,0-.648,0-1.3-.046-1.967a30.782,30.782,0,0,0,7.544-7.844,29.809,29.809,0,0,1-8.7,2.383,15.167,15.167,0,0,0,6.664-8.377,30.482,30.482,0,0,1-9.6,3.679,15.145,15.145,0,0,0-25.778,13.815,42.971,42.971,0,0,1-31.193-15.8,15.14,15.14,0,0,0,4.674,20.2,14.94,14.94,0,0,1-6.873-1.9v.185A15.157,15.157,0,0,0,111.787,239a15.119,15.119,0,0,1-6.826.254A15.154,15.154,0,0,0,119.1,249.764a30.453,30.453,0,0,1-18.79,6.5,31.451,31.451,0,0,1-3.61-.208,42.806,42.806,0,0,0,23.186,6.8" transform="matrix(0.966, -0.259, 0.259, 0.966, -145.921, 132.823)"/><path class="a" d="M131.052,291.732c41.243,0,63.8-34.18,63.8-63.8,0-.96,0-1.92-.069-2.914A45.606,45.606,0,0,0,205.96,213.4a44.163,44.163,0,0,1-12.891,3.531,22.47,22.47,0,0,0,9.874-12.411,45.162,45.162,0,0,1-14.228,5.451,22.439,22.439,0,0,0-38.191,20.467,63.664,63.664,0,0,1-46.214-23.415,22.431,22.431,0,0,0,6.925,29.929,22.135,22.135,0,0,1-10.182-2.811v.274a22.456,22.456,0,0,0,18,21.975,22.4,22.4,0,0,1-10.114.377,22.452,22.452,0,0,0,20.947,15.564,45.118,45.118,0,0,1-27.838,9.634,46.6,46.6,0,0,1-5.348-.309,63.42,63.42,0,0,0,34.352,10.079" transform="matrix(0.996, -0.087, 0.087, 0.996, -43.837, -35.528)"/><path class="a" d="M147.347,333.868c60.807,0,94.066-50.395,94.066-94.066,0-1.415,0-2.831-.1-4.3A67.239,67.239,0,0,0,257.79,218.37a65.113,65.113,0,0,1-19.005,5.206,33.129,33.129,0,0,0,14.557-18.3,66.585,66.585,0,0,1-20.977,8.037,33.083,33.083,0,0,0-56.308,30.176,93.865,93.865,0,0,1-68.136-34.523,33.071,33.071,0,0,0,10.21,44.127,32.634,32.634,0,0,1-15.012-4.145v.4a33.109,33.109,0,0,0,26.537,32.4,33.025,33.025,0,0,1-14.911.556,33.1,33.1,0,0,0,30.884,22.948,66.52,66.52,0,0,1-41.043,14.2,68.7,68.7,0,0,1-7.885-.455,93.5,93.5,0,0,0,50.647,14.861" transform="translate(137.919 -204.563) rotate(1)"/><path class="a" d="M167.018,384.733c84.424,0,130.6-69.968,130.6-130.6,0-1.965,0-3.93-.14-5.965a93.354,93.354,0,0,0,22.878-23.79A90.4,90.4,0,0,1,293.97,231.6a46,46,0,0,0,20.211-25.4,92.445,92.445,0,0,1-29.124,11.158,45.933,45.933,0,0,0-78.178,41.9,130.321,130.321,0,0,1-94.6-47.931,45.915,45.915,0,0,0,14.176,61.265,45.308,45.308,0,0,1-20.843-5.755v.562a45.968,45.968,0,0,0,36.843,44.984,45.85,45.85,0,0,1-20.7.772,45.959,45.959,0,0,0,42.879,31.861,92.356,92.356,0,0,1-56.984,19.72A95.378,95.378,0,0,1,96.7,364.1a129.821,129.821,0,0,0,70.318,20.633" transform="matrix(0.985, 0.174, -0.174, 0.985, 404.639, -179.716)"/><path class="a" d="M136.684,306.3c48,0,74.261-39.784,74.261-74.262,0-1.117,0-2.235-.08-3.392a53.082,53.082,0,0,0,13.009-13.527,51.4,51.4,0,0,1-15,4.11,26.154,26.154,0,0,0,11.492-14.445,52.566,52.566,0,0,1-16.56,6.345,26.118,26.118,0,0,0-44.453,23.823,74.1,74.1,0,0,1-53.791-27.254,26.108,26.108,0,0,0,8.061,34.836,25.763,25.763,0,0,1-11.851-3.272v.319a26.138,26.138,0,0,0,20.95,25.578,26.071,26.071,0,0,1-11.772.439,26.133,26.133,0,0,0,24.381,18.116,52.515,52.515,0,0,1-32.4,11.213,54.234,54.234,0,0,1-6.225-.359A73.818,73.818,0,0,0,136.684,306.3" transform="matrix(0.999, 0.052, -0.052, 0.999, 634.985, -30.642)"/><path class="a" d="M123.845,273.1c32.59,0,50.415-27.009,50.415-50.415,0-.758,0-1.517-.054-2.3a36.038,36.038,0,0,0,8.831-9.184,34.9,34.9,0,0,1-10.186,2.79,17.756,17.756,0,0,0,7.8-9.807,35.687,35.687,0,0,1-11.243,4.307,17.731,17.731,0,0,0-30.179,16.173,50.307,50.307,0,0,1-36.518-18.5,17.725,17.725,0,0,0,5.472,23.65,17.49,17.49,0,0,1-8.046-2.221v.217a17.745,17.745,0,0,0,14.222,17.365,17.7,17.7,0,0,1-7.992.3,17.742,17.742,0,0,0,16.552,12.3,35.652,35.652,0,0,1-22,7.612,36.814,36.814,0,0,1-4.226-.244,50.114,50.114,0,0,0,27.145,7.965" transform="translate(752.354 -82.466) rotate(-8)"/><path class="a" d="M114.338,248.514c21.176,0,32.759-17.55,32.759-32.759,0-.493,0-.986-.035-1.5a23.417,23.417,0,0,0,5.738-5.967,22.676,22.676,0,0,1-6.619,1.813,11.538,11.538,0,0,0,5.07-6.372,23.189,23.189,0,0,1-7.305,2.8,11.521,11.521,0,0,0-19.609,10.509,32.689,32.689,0,0,1-23.729-12.023,11.517,11.517,0,0,0,3.556,15.367,11.365,11.365,0,0,1-5.228-1.443v.141a11.53,11.53,0,0,0,9.241,11.283,11.5,11.5,0,0,1-5.193.194,11.528,11.528,0,0,0,10.755,7.992A23.166,23.166,0,0,1,99.446,243.5a23.923,23.923,0,0,1-2.746-.159,32.563,32.563,0,0,0,17.638,5.175" transform="translate(943.436 -132.212) rotate(5)"/><path class="a" d="M109.725,236.585c15.637,0,24.19-12.96,24.19-24.19,0-.364,0-.728-.026-1.1a17.291,17.291,0,0,0,4.238-4.407,16.745,16.745,0,0,1-4.887,1.339,8.52,8.52,0,0,0,3.744-4.706,17.124,17.124,0,0,1-5.394,2.067,8.508,8.508,0,0,0-14.48,7.76,24.139,24.139,0,0,1-17.522-8.878,8.5,8.5,0,0,0,2.626,11.348,8.392,8.392,0,0,1-3.861-1.066v.1a8.514,8.514,0,0,0,6.824,8.332,8.492,8.492,0,0,1-3.835.143,8.513,8.513,0,0,0,7.942,5.9,17.106,17.106,0,0,1-10.555,3.653,17.661,17.661,0,0,1-2.028-.117,24.046,24.046,0,0,0,13.025,3.822" transform="translate(1043.219 -78.563) rotate(5)"/><path class="a" d="M108.736,234.028c14.45,0,22.353-11.976,22.353-22.354,0-.336,0-.673-.024-1.021a15.978,15.978,0,0,0,3.916-4.072,15.474,15.474,0,0,1-4.516,1.237,7.873,7.873,0,0,0,3.459-4.348,15.824,15.824,0,0,1-4.985,1.91,7.862,7.862,0,0,0-13.381,7.171,22.306,22.306,0,0,1-16.192-8.2,7.859,7.859,0,0,0,2.426,10.486,7.755,7.755,0,0,1-3.567-.985v.1a7.868,7.868,0,0,0,6.306,7.7,7.847,7.847,0,0,1-3.543.132,7.866,7.866,0,0,0,7.339,5.453,15.807,15.807,0,0,1-9.753,3.375A16.318,16.318,0,0,1,96.7,230.5a22.22,22.22,0,0,0,12.036,3.531" transform="translate(1117.794 -17.595) rotate(5)"/></svg>