<?xml version="1.0" encoding="utf-8"?>
<!-- Generator: Adobe Illustrator 24.1.1, SVG Export Plug-In . SVG Version: 6.00 Build 0)  -->
<svg version="1.1" id="Layer_1" xmlns="http://www.w3.org/2000/svg" xmlns:xlink="http://www.w3.org/1999/xlink" x="0px" y="0px"
	 viewBox="0 0 18.3 18.3" style="enable-background:new 0 0 18.3 18.3;" xml:space="preserve">
<style type="text/css">
	.st0{fill:#6E9C8C;}
	.st1{fill:#FFFFFF;}
</style>
<g>
	<circle class="st0" cx="9.2" cy="9.2" r="9.2"/>
	<g transform="translate(6.375) rotate(90)">
		<path class="st1" d="M9.4-6.3C9.2-6.3,9-6.3,8.9-6.1L3.4-1.7C3.1-1.4,3-0.8,3.2-0.4C3.4,0,3.9,0.1,4.2,0c0,0,0.1,0,0.1-0.1l5-4
			l5,4c0.3,0.3,0.8,0.2,1-0.1c0,0,0.1-0.1,0.1-0.1c0.3-0.4,0.2-1-0.2-1.3L9.9-6.2C9.7-6.3,9.5-6.3,9.4-6.3z"/>
	</g>
</g>
</svg>
