<svg xmlns="http://www.w3.org/2000/svg" width="139.007" height="26.248" viewBox="0 0 139.007 26.248"><defs><style>.a{fill:#fff;}</style></defs><g transform="translate(-127.672 -410.124)"><g transform="translate(127.672 410.124)"><path class="a" d="M152.037,422.484a16.946,16.946,0,0,1-.833,5.323,11.29,11.29,0,0,1-2.41,4.135,10.779,10.779,0,0,1-3.951,2.668,14.287,14.287,0,0,1-5.457.925l-11.714-.078.012-1.888,1.491.01a3.18,3.18,0,0,0,.729-.074,1.166,1.166,0,0,0,.574-.317,1.648,1.648,0,0,0,.386-.69,4.265,4.265,0,0,0,.147-1.213l.114-17.1a3.817,3.817,0,0,0-.131-1.136,1.468,1.468,0,0,0-.386-.653,1.311,1.311,0,0,0-.579-.307,3.06,3.06,0,0,0-.71-.083l-1.491-.01.012-1.871,11.714.078a16.752,16.752,0,0,1,5.272.807,10.407,10.407,0,0,1,3.936,2.331,9.988,9.988,0,0,1,2.452,3.837A15.057,15.057,0,0,1,152.037,422.484Zm-6-.04q.035-5.076-1.812-7.567a6.436,6.436,0,0,0-5.468-2.515l-2.028-.013-.139,20.968,1.993.013a6.59,6.59,0,0,0,3.21-.733,6.388,6.388,0,0,0,2.329-2.159,10.682,10.682,0,0,0,1.418-3.43A20.319,20.319,0,0,0,146.041,422.444Z" transform="translate(-127.672 -410.124)"/><path class="a" d="M168.21,429.629l-3.418-5.973a10.358,10.358,0,0,0,1.774-.916,7,7,0,0,0,1.56-1.367,6.577,6.577,0,0,0,1.113-1.9,6.983,6.983,0,0,0,.432-2.492,5.633,5.633,0,0,0-2.315-4.9q-2.336-1.7-7.362-1.73l-11.437-.076-.012,1.871,1.491.01a3.048,3.048,0,0,1,.693.082,1.308,1.308,0,0,1,.579.308,1.516,1.516,0,0,1,.394.653,3.557,3.557,0,0,1,.139,1.135l-.115,17.294a3.5,3.5,0,0,1-.154,1.117,1.464,1.464,0,0,1-.4.638,1.274,1.274,0,0,1-.583.283,3.288,3.288,0,0,1-.694.064l-1.489-.01-.013,1.888,12.251.082.013-1.89-1.525-.01a3.351,3.351,0,0,1-.693-.074,1.271,1.271,0,0,1-.579-.29,1.455,1.455,0,0,1-.4-.644,3.52,3.52,0,0,1-.139-1.118l.047-7,2.357.016,4.159,7.842a6.881,6.881,0,0,0,1.193,1.62,4.62,4.62,0,0,0,1.058.764Zm-4.734-9.925a4.133,4.133,0,0,1-.722,1.624,3.022,3.022,0,0,1-1.323.97,5.551,5.551,0,0,1-2.056.315l-1.993-.013.068-10.171,1.924.012a6.6,6.6,0,0,1,2.007.283,2.938,2.938,0,0,1,1.346.876,3.707,3.707,0,0,1,.752,1.538,9.239,9.239,0,0,1,.228,2.289A10.7,10.7,0,0,1,163.476,419.7Z" transform="translate(-123.263 -410.092)"/><path class="a" d="M240.206,436.217,226.49,416.579l-.1,15.353a4.037,4.037,0,0,0,.139,1.214,1.705,1.705,0,0,0,.386.695,1.169,1.169,0,0,0,.577.325,3.18,3.18,0,0,0,.7.082l1.489.01-.012,1.888-9.271-.062.013-1.888,1.489.01a3.025,3.025,0,0,0,.712-.073,1.24,1.24,0,0,0,.582-.317,1.6,1.6,0,0,0,.394-.691,4.263,4.263,0,0,0,.147-1.212l.114-17.1a3.556,3.556,0,0,0-.139-1.135,1.527,1.527,0,0,0-.394-.652,1.309,1.309,0,0,0-.579-.308,3.051,3.051,0,0,0-.693-.082l-1.491-.01.012-1.871,7.885.052L240.863,428.6l.091-13.672a3.591,3.591,0,0,0-.139-1.135,1.527,1.527,0,0,0-.394-.653,1.314,1.314,0,0,0-.579-.308,3.053,3.053,0,0,0-.693-.082l-1.491-.01.012-1.871,9.271.062-.012,1.871-1.491-.01a3,3,0,0,0-.694.073,1.234,1.234,0,0,0-.582.317,1.607,1.607,0,0,0-.4.691,4.262,4.262,0,0,0-.147,1.212l-.141,21.158Z" transform="translate(-107.935 -409.991)"/><path class="a" d="M183.244,415.182a4.922,4.922,0,0,1,.241-1.056,1.969,1.969,0,0,1,.508-.785,2.265,2.265,0,0,1,.878-.489,4.409,4.409,0,0,1,1.335-.164l2.842.019-.1,13.173h5.632l.1-13.136,2.842.019a4.414,4.414,0,0,1,1.333.182,2.276,2.276,0,0,1,.872.5,1.981,1.981,0,0,1,.5.792,4.912,4.912,0,0,1,.227,1.059l.245,2.2,2.374.016-.127-6.88-22.111-.147-.235,6.877,2.391.017Z" transform="translate(-116.407 -410.047)"/><path class="a" d="M171.639,412.393a1.187,1.187,0,0,1,.57.324,1.648,1.648,0,0,1,.376.7,4.224,4.224,0,0,1,.131,1.213l-.087,11.271h5.632l.061-7.412V410.47l-8.888-.059-.012,1.888,1.489.01A3.2,3.2,0,0,1,171.639,412.393Z" transform="translate(-118.786 -410.063)"/><g transform="translate(46.811 16.755)"><path class="a" d="M169.583,424.194h.919l3.316,8.742h-.993l-.845-2.285h-3.911l-.844,2.285h-.956Zm2.086,5.613L170.03,425.4l-1.652,4.408Z" transform="translate(-166.268 -423.885)"/><path class="a" d="M174.483,431.771v1.2h-.894V424.01h.894v3.738a2.416,2.416,0,0,1,2.1-1.366c1.316,0,2.582,1.143,2.582,3.29v.124c0,2.149-1.266,3.3-2.582,3.3A2.4,2.4,0,0,1,174.483,431.771Zm3.763-1.975v-.1c0-1.577-.845-2.508-1.839-2.508a2.236,2.236,0,0,0-1.961,2.5v.125a2.222,2.222,0,0,0,1.961,2.483C177.426,432.292,178.246,431.387,178.246,429.8Z" transform="translate(-164.71 -423.924)"/><path class="a" d="M179.088,430.678v-.05c0-1.328.956-2.086,2.384-2.086a5.311,5.311,0,0,1,1.664.261v-.384a1.473,1.473,0,0,0-1.652-1.6,3.541,3.541,0,0,0-1.652.434l-.285-.733a4.468,4.468,0,0,1,2.036-.522,2.466,2.466,0,0,1,1.813.646,2.4,2.4,0,0,1,.621,1.75v4.16h-.882v-.944a2.234,2.234,0,0,1-1.974,1.081A1.978,1.978,0,0,1,179.088,430.678Zm4.061-.372V429.5a4.558,4.558,0,0,0-1.565-.261c-1.031,0-1.6.534-1.6,1.354v.036a1.3,1.3,0,0,0,1.379,1.317A1.683,1.683,0,0,0,183.149,430.305Z" transform="translate(-163.539 -423.501)"/><path class="a" d="M184.29,431.954l3.589-5.116h-3.453v-.77h4.6v.583l-3.589,5.117h3.575v.769H184.29Z" transform="translate(-162.432 -423.486)"/><path class="a" d="M188.98,429.38v-.086a2.9,2.9,0,1,1,5.749-.013v.075a3.063,3.063,0,0,1-2.881,3.34A3.031,3.031,0,0,1,188.98,429.38Zm4.843-.012v-.062c0-1.453-.87-2.534-1.975-2.534-1.143,0-1.95,1.081-1.95,2.522v.062c0,1.453.857,2.532,1.962,2.532C193,431.888,193.823,430.8,193.823,429.368Z" transform="translate(-161.434 -423.508)"/><path class="a" d="M194.233,426.068h.969l1.812,5.315,1.839-5.315h.944l-2.372,6.519h-.807Z" transform="translate(-160.316 -423.486)"/><path class="a" d="M199.916,424.1h.993v1.056h-.993Zm.05,2.384h.894v6.469h-.894Z" transform="translate(-159.106 -423.904)"/><path class="a" d="M201.984,429.825v-.087a3.05,3.05,0,0,1,2.882-3.34,2.739,2.739,0,0,1,2.036.882l-.534.669a2.1,2.1,0,0,0-1.515-.733c-1.081,0-1.95,1.019-1.95,2.522v.062c0,1.527.894,2.508,1.987,2.508a2.077,2.077,0,0,0,1.515-.745l.522.6a2.657,2.657,0,0,1-2.086.969C203.214,433.128,201.984,431.786,201.984,429.825Zm3.465-5.886.919.434-1.3,1.3h-.684Z" transform="translate(-158.666 -423.939)"/></g><path class="a" d="M222.667,434.2a2.6,2.6,0,0,1-.8-.126,2.107,2.107,0,0,1-.717-.412,2.965,2.965,0,0,1-.619-.783A7.328,7.328,0,0,1,220,431.64l-7.277-20.947-4.87-.033-5.7,15.134h2.882l2.218-6.3q.213-.624.451-1.3l.477-1.347q.238-.675.451-1.315c.141-.426.266-.819.371-1.175q.135.624.312,1.31t.372,1.38q.195.695.389,1.363t.382,1.276l3.753,11.567q.1.295.2.694a3.307,3.307,0,0,1,.1.833,1.316,1.316,0,0,1-.143.622,1.271,1.271,0,0,1-.358.422,1.463,1.463,0,0,1-.5.24,1.968,1.968,0,0,1-.537.074l-1.386-.01-.013,1.89,11.715.078.012-1.888Z" transform="translate(-111.819 -410.01)"/></g><path class="a" d="M211.9,425.049h-3.339l-.691-2.13h4.03Z" transform="translate(17.069 2.723)"/></g></svg>