<svg xmlns="http://www.w3.org/2000/svg" width="41.594" height="56.9" viewBox="0 0 41.594 56.9"><defs><style>.a{fill:#fff;}</style></defs><g transform="translate(-5.8 -3.5)"><path class="a" d="M-3501.053-628.025h-37.268a1.933,1.933,0,0,1-1.5-.625,2.053,2.053,0,0,1-.5-1.372v-52.906a1.913,1.913,0,0,1,2-2h37.6a1.914,1.914,0,0,1,2,2v52.906a1.888,1.888,0,0,1-.665,1.372A2.478,2.478,0,0,1-3501.053-628.025Zm-32.61-10.316v1.664h27.951v-1.664Zm0-8.651v1.663h27.951v-1.663Zm0-3.993v1.664h27.951v-1.664Zm0-3.66v1.664h27.951v-1.664Zm0-3.993v1.664h27.951v-1.664Zm0-7.653v1.664h27.951v-1.664Zm0-3.993v1.664h27.951v-1.664Zm0-3.992v1.663h27.951v-1.663Zm0-3.66v1.663h27.95v-1.663Z" transform="translate(3546.117 688.425)"/></g></svg>