<svg xmlns="http://www.w3.org/2000/svg" width="64" height="61" viewBox="0 0 64 61"><defs><style>.a{fill:#fff;}</style></defs><g transform="translate(-2 -1.8)"><g transform="translate(46.8 8.4)"><circle class="a" cx="8" cy="8" r="8" transform="translate(0.2 0.4)"/></g><g transform="translate(5.2 8.4)"><circle class="a" cx="8" cy="8" r="8" transform="translate(-0.2 0.4)"/></g><g transform="translate(24.4 2)"><ellipse class="a" cx="10" cy="9.5" rx="10" ry="9.5" transform="translate(-0.4 -0.2)"/></g><path class="a" d="M54.8,12.2c-1.6,0-5.12.64-6.4,1.6a21.362,21.362,0,0,1,1.6,8S46.16,9,34,9,18,21.8,18,21.8a21.362,21.362,0,0,1,1.6-8c-1.28-.96-4.8-1.6-6.4-1.6C7.76,12.2,2,18.6,2,22.76V41a6.419,6.419,0,0,0,6.4,6.4h9.28c2.88-2.88,8-6.4,16.32-6.4s13.44,3.52,16.32,6.4H59.6A6.419,6.419,0,0,0,66,41V22.76C66,18.6,59.6,12.2,54.8,12.2Z" transform="translate(0 15.4)"/></g></svg>