<svg xmlns="http://www.w3.org/2000/svg" width="39.111" height="39.111" viewBox="0 0 39.111 39.111"><defs><style>.a{fill:#747474;}</style></defs><path class="a" d="M39.111,39.111H0V0H39.111V39.11ZM14.46,18.1a.778.778,0,0,0-.554.229l-3.318,3.318a3.916,3.916,0,0,0,0,5.532l1.106,1.106a3.913,3.913,0,0,0,5.532,0L21.1,24.415a4.7,4.7,0,0,0,0-6.637.782.782,0,0,0-1.106,0,.784.784,0,0,0,0,1.106,3.128,3.128,0,0,1,0,4.425L16.119,27.18a2.347,2.347,0,0,1-3.319,0l-1.106-1.106a2.349,2.349,0,0,1,0-3.319l3.318-3.318A.782.782,0,0,0,14.46,18.1Zm9.955-8.659a3.885,3.885,0,0,0-2.766,1.145l-3.872,3.872a4.7,4.7,0,0,0,0,6.637.782.782,0,1,0,1.106-1.106,3.133,3.133,0,0,1,0-4.425l3.872-3.871a2.346,2.346,0,0,1,3.319,0L27.181,12.8a2.35,2.35,0,0,1,0,3.319l-3.318,3.318a.782.782,0,1,0,1.106,1.106l3.319-3.318a3.917,3.917,0,0,0,0-5.532l-1.106-1.106A3.885,3.885,0,0,0,24.415,9.442Z"/></svg>