<svg xmlns="http://www.w3.org/2000/svg" width="33.431" height="27.178" viewBox="0 0 33.431 27.178"><defs><style>.a{fill:#55acee;}</style></defs><path class="a" d="M107.211,230.085c12.619,0,19.521-10.458,19.521-19.521,0-.294,0-.587-.021-.892a13.954,13.954,0,0,0,3.42-3.556,13.513,13.513,0,0,1-3.944,1.08,6.875,6.875,0,0,0,3.021-3.8,13.818,13.818,0,0,1-4.353,1.668,6.866,6.866,0,0,0-11.686,6.262,19.48,19.48,0,0,1-14.14-7.164,6.863,6.863,0,0,0,2.119,9.158,6.773,6.773,0,0,1-3.115-.86v.084a6.871,6.871,0,0,0,5.507,6.724,6.853,6.853,0,0,1-3.094.115,6.87,6.87,0,0,0,6.409,4.762,13.8,13.8,0,0,1-8.518,2.948A14.257,14.257,0,0,1,96.7,227a19.4,19.4,0,0,0,10.511,3.084" transform="translate(-96.7 -202.907)"/></svg>