<svg xmlns="http://www.w3.org/2000/svg" width="49.2" height="36.911" viewBox="0 0 49.2 36.911"><defs><style>.a{fill:#e02f2f;}.b{fill:#fff;}</style></defs><path class="a" d="M48.708,11.965s-.48-3.619-1.955-5.212a6.787,6.787,0,0,0-4.929-2.219C34.938,4,24.611,4,24.611,4h-.023S14.26,4,7.376,4.534A6.79,6.79,0,0,0,2.447,6.753C.974,8.346.492,11.965.492,11.965A84.538,84.538,0,0,0,0,20.458v3.98a84.508,84.508,0,0,0,.492,8.494s.48,3.617,1.955,5.208c1.873,2.089,4.329,2.026,5.424,2.244,3.936.4,16.729.528,16.729.528s10.338-.018,17.224-.546a6.817,6.817,0,0,0,4.929-2.224c1.473-1.59,1.955-5.208,1.955-5.208A84.549,84.549,0,0,0,49.2,24.44v-3.98A84.549,84.549,0,0,0,48.708,11.965Z" transform="translate(0 -4)"/><path class="b" d="M12,10V28.456l15.38-9.228Z" transform="translate(6.456 -0.772)"/></svg>